<?xml version="1.0" encoding="UTF-8" standalone="no"?>
<!DOCTYPE svg PUBLIC "-//W3C//DTD SVG 1.1//EN" "http://www.w3.org/Graphics/SVG/1.1/DTD/svg11.dtd">
<svg width="100%" height="100%" viewBox="0 0 1390 1112" version="1.1" xmlns="http://www.w3.org/2000/svg" xmlns:xlink="http://www.w3.org/1999/xlink" xml:space="preserve" xmlns:serif="http://www.serif.com/" style="fill-rule:evenodd;clip-rule:evenodd;stroke-linejoin:round;stroke-miterlimit:2;">
    <g transform="matrix(1,0,0,1,-305,-444)">
        <g transform="matrix(1.544444,0,0,1.544444,-544.444444,-559.888889)">
            <g transform="matrix(1.023018,0,0,0.951087,57.289003,-108.967391)">
                <path d="M1111.66,1145.896C1112.924,1150.654 1112.038,1155.775 1109.267,1159.726C1106.497,1163.677 1102.162,1166 1097.561,1166C1030.912,1166 812.088,1166 745.439,1166C740.838,1166 736.503,1163.677 733.733,1159.726C730.962,1155.775 730.076,1150.654 731.34,1145.896C744.788,1095.269 780.605,960.427 803.494,874.258C815.484,829.12 853.84,798 897.483,798C913.2,798 929.8,798 945.517,798C989.16,798 1027.516,829.12 1039.506,874.258C1062.395,960.427 1098.212,1095.269 1111.66,1145.896Z" style="fill:rgb(253,46,0);"/>
            </g>
            <g transform="matrix(1.139241,0,0,1.149425,-138.101266,-155.747126)">
                <path d="M1394,1049C1394,1049 1394,1049 1394,1049C1394,1072.074 1384.752,1094.203 1368.29,1110.518C1351.829,1126.834 1329.502,1136 1306.222,1136L691.778,1136C668.498,1136 646.171,1126.834 629.71,1110.518C613.248,1094.203 604,1072.074 604,1049L604,1049L1394,1049Z" style="fill:rgb(253,46,0);"/>
            </g>
            <g transform="matrix(1.132075,0,0,1.132075,-104.90566,-230.754717)">
                <circle cx="870" cy="1361" r="53" style="fill:rgb(253,46,0);"/>
            </g>
            <g transform="matrix(1.132075,0,0,1.132075,135.09434,-230.754717)">
                <circle cx="870" cy="1361" r="53" style="fill:rgb(253,46,0);"/>
            </g>
        </g>
    </g>
</svg>
