<?xml version="1.0" encoding="UTF-8" standalone="no"?>
<!DOCTYPE svg PUBLIC "-//W3C//DTD SVG 1.1//EN" "http://www.w3.org/Graphics/SVG/1.1/DTD/svg11.dtd">
<svg width="100%" height="100%" viewBox="0 0 1037 1184" version="1.1" xmlns="http://www.w3.org/2000/svg" xmlns:xlink="http://www.w3.org/1999/xlink" xml:space="preserve" xmlns:serif="http://www.serif.com/" style="fill-rule:evenodd;clip-rule:evenodd;stroke-linejoin:round;stroke-miterlimit:2;">
    <g transform="matrix(1,0,0,1,-408.731283,-408.496439)">
        <g transform="matrix(2.31505,0,0,2.31505,-1388.050163,-1315.050163)">
            <g transform="matrix(0.236578,-0.236578,0.91832,0.91832,-247.039043,1374.127591)">
                <path d="M3013,492.5C3013,513.749 2946.036,531 2863.556,531L2624.444,531C2541.964,531 2475,513.749 2475,492.5C2475,471.251 2541.964,454 2624.444,454L2863.556,454C2946.036,454 3013,471.251 3013,492.5Z" style="fill:rgb(255,246,233);"/>
            </g>
            <g transform="matrix(0.875274,0,0,0.875274,-143.507523,481.039108)">
                <path d="M1538.438,343.65C1553.466,354.453 1562.327,371.869 1562.212,390.376C1562.097,408.884 1553.02,426.188 1537.859,436.803C1537.859,436.822 1537.849,436.828 1537.84,436.834C1517.983,450.738 1491.512,450.595 1471.806,436.477C1452.706,422.847 1429.593,415.25 1405.5,415.25C1342.444,415.25 1291.25,466.444 1291.25,529.5C1291.25,592.556 1342.444,643.75 1405.5,643.75C1429.593,643.75 1452.706,636.153 1471.815,622.536C1491.515,608.421 1517.979,608.278 1537.831,622.179C1537.849,622.172 1537.859,622.178 1537.868,622.185C1553.033,632.803 1562.112,650.112 1562.227,668.624C1562.342,687.137 1553.479,704.557 1538.447,715.363C1500.162,742.725 1453.815,758 1405.5,758C1279.387,758 1177,655.613 1177,529.5C1177,403.387 1279.387,301 1405.5,301C1453.815,301 1500.162,316.275 1538.438,343.65Z" style="fill:rgb(255,246,233);"/>
            </g>
        </g>
    </g>
</svg>
